<svg id="Group_6" data-name="Group 6" xmlns="http://www.w3.org/2000/svg" width="905.682" height="1076.715" viewBox="0 0 905.682 1076.715">
  <g id="Rectangle_13" data-name="Rectangle 13" transform="translate(0)" fill="#e0e0e0">
    <path d="M0,0,905.682,139.084V937.631L0,1076.715Z" stroke="none"/>
    <path d="M 904.949462890625 936.8726196289062 L 904.949462890625 139.8426971435547 L 1.331195950508118 1.37815535068512 L 1.331195950508118 1075.337280273438 L 904.949462890625 936.8726196289062 M 905.6821899414062 937.6311645507812 L 0 1076.71533203125 L 0 0 L 905.6821899414062 139.0841369628906 L 905.6821899414062 937.6311645507812 Z" stroke="none" fill="#707070"/>
  </g>
  <g id="Group_4" data-name="Group 4" transform="translate(372.977 364.032)">
    <path id="tick_box" d="M52.122,2.9A49.278,49.278,0,0,0,0,52.3V296.354a49.344,49.344,0,0,0,15.523,36.118,49.165,49.165,0,0,0,36.6,13.279L274.076,333.4a41.987,41.987,0,0,0,17.007-4.7,47.308,47.308,0,0,0,13.8-10.909,51.5,51.5,0,0,0,12.654-33.807V158.66l-28.827-.16V285.108a17.438,17.438,0,0,1-1.14,6.222,16.837,16.837,0,0,1-3.119,5.165,15.5,15.5,0,0,1-4.648,3.593,14.175,14.175,0,0,1-5.729,1.5L52.122,311.466a16.75,16.75,0,0,1-6.681-1.047,16.151,16.151,0,0,1-9.148-8.756,16.857,16.857,0,0,1-1.352-6.67V53.659a16.858,16.858,0,0,1,1.352-6.671,16.15,16.15,0,0,1,9.148-8.755,16.75,16.75,0,0,1,6.681-1.047l146.453,6.52V11.05Z" transform="translate(0)" fill="#5b5b5b"/>
    <g id="Path_2" data-name="Path 2" transform="translate(66.287 21.518)" fill="none">
      <path d="M27.6,107.957l77.6,80.064L244.442,13.949" stroke="none"/>
      <path d="M 106.1877822875977 212.1705169677734 L 94.07591247558594 199.7688903808594 L 15.88357734680176 119.7056579589844 L 39.23080444335938 96.29783630371094 L 104.2163772583008 163.8539886474609 L 233.5140533447266 3.321101665496826 L 255.2866821289062 24.49601745605469 L 117.1410446166992 198.3834228515625 L 106.1877822875977 212.1705169677734 Z" stroke="none" fill="#707070"/>
    </g>
  </g>
</svg>
